<svg height="512pt" viewBox="-40 0 512 512" width="512pt" xmlns="http://www.w3.org/2000/svg"><path d="m394.789062 116.75c0-64.375-52.375-116.75-116.75-116.75h-102.25v30h5.546876l40.785156 110.332031h172.667968zm0 0" fill="#c2001b"/><path d="m331.921875 126h-312.261719l6.917969-19.921875c22.050781-63.449219 82.011719-106.078125 149.210937-106.078125 67.199219 0 127.160157 42.628906 149.210938 106.078125zm0 0" fill="#c2001b"/><path d="m331.921875 126h-156.132813v-126c67.199219 0 127.160157 42.628906 149.210938 106.078125zm0 0" fill="#901"/><path d="m351.578125 336.210938c0 96.929687-78.859375 175.789062-175.789063 175.789062-96.929687 0-175.789062-78.859375-175.789062-175.789062 0-6.03125.308594-12.0625.929688-18.070313h-.660157l2.628907-13.761719c.152343-.847656.320312-1.699218.492187-2.550781l.289063-1.519531 23-119.730469h298.199218l22.941406 119.433594c2.5 11.886719 3.757813 24.066406 3.757813 36.199219zm0 0" fill="#e1e1e3"/><path d="m351.578125 336.210938c0 96.929687-78.859375 175.789062-175.789063 175.789062v-331.421875h149.089844l22.941406 119.433594c2.5 11.886719 3.757813 24.066406 3.757813 36.199219zm0 0" fill="#d9d9db"/><path d="m278.550781 197v78.621094c0 29.4375-23.269531 53.378906-51.878906 53.378906h-101.761719c-28.609375 0-51.878906-23.941406-51.878906-53.378906v-78.621094zm0 0" fill="#ffdba9"/><path d="m175.789062 197h102.761719v78.621094c0 29.4375-23.269531 53.378906-51.878906 53.378906h-50.882813zm0 0" fill="#ffc473"/><path d="m326.921875 329.480469v24.460937l-4.921875 4.199219c-17.148438 14.621094-39.410156 24.550781-62.660156 27.9375-5.667969.832031-11.289063 1.242187-16.800782 1.242187-19.007812 0-36.789062-4.859374-51.257812-14.191406-5.839844-3.757812-11.082031-8.46875-15.492188-13.789062-4.410156 5.320312-9.648437 10.03125-15.488281 13.789062-14.472656 9.332032-32.25 14.191406-51.261719 14.191406-5.507812 0-11.128906-.410156-16.800781-1.242187-23.25-3.386719-45.507812-13.316406-62.660156-27.9375l-4.917969-4.199219v-24.460937l17.140625 3.917969c4.328125.992187 17.46875-4.339844 30.128907-13.859376 1.390624-1.039062 2.832031-2.289062 4.410156-3.808593 3.082031-2.992188 6.171875-6.441407 9.441406-10.101563 12.347656-13.800781 27.707031-30.980468 52.699219-31h.050781c14.207031 0 27.628906 5.660156 37.257812 15.421875 9.632813-9.761719 23.050782-15.421875 37.261719-15.421875h.050781c24.988282.019532 40.347657 17.199219 52.699219 31 3.269531 3.660156 6.359375 7.109375 9.4375 10.101563 1.582031 1.519531 3.023438 2.769531 4.410157 3.808593 12.652343 9.519532 25.800781 14.859376 30.132812 13.859376zm0 0" fill="#fff"/><path d="m126.121094 218.855469h29.667968v29.667969h-29.667968zm0 0" fill="#c06100"/><path d="m195.789062 218.855469h29.667969v29.667969h-29.667969zm0 0" fill="#703700"/><path d="m380.789062 117.25c-28.121093 0-51 22.878906-51 51s22.878907 51 51 51c28.121094 0 51-22.878906 51-51s-22.878906-51-51-51zm0 0" fill="#d9d9db"/><path d="m11.550781 96h328.480469v103.671875h-328.480469zm0 0" fill="#ff3800"/><path d="m309.78125 333.398438 17.140625-3.917969v24.460937l-4.921875 4.199219c-17.148438 14.621094-39.410156 24.550781-62.660156 27.9375-5.667969.832031-11.289063 1.242187-16.800782 1.242187-19.007812 0-36.789062-4.859374-51.257812-14.191406-5.839844-3.757812-11.082031-8.46875-15.492188-13.789062v-69.289063c9.632813-9.761719 23.050782-15.421875 37.261719-15.421875h.050781c24.988282.019532 40.347657 17.199219 52.699219 31 3.269531 3.660156 6.359375 7.109375 9.4375 10.101563 1.582031 1.519531 3.023438 2.769531 4.410157 3.808593 12.652343 9.519532 25.800781 14.859376 30.132812 13.859376zm0 0" fill="#e1e1e3"/><path d="m175.789062 96h164.242188v103.671875h-164.242188zm0 0" fill="#c2001b"/></svg>